<svg width="318" height="318" viewBox="0 0 318 318" fill="none" xmlns="http://www.w3.org/2000/svg">
<g filter="url(#filter0_f_880_61)">
<path d="M231.542 282.134C231.542 284.705 199.025 286.79 158.914 286.79C118.802 286.79 86.2852 284.705 86.2852 282.134C86.2852 279.563 118.802 277.478 158.914 277.478C199.025 277.478 231.542 279.563 231.542 282.134Z" fill="#BAC7CB"/>
</g>
<path d="M228.19 159.1C228.19 197.257 197.257 228.19 159.1 228.19C120.943 228.19 90.0098 197.257 90.0098 159.1C90.0098 120.943 120.943 90.0098 159.1 90.0098C197.257 90.0098 228.19 120.943 228.19 159.1Z" fill="url(#paint0_linear_880_61)"/>
<defs>
<filter id="filter0_f_880_61" x="71.387" y="262.58" width="175.053" height="39.1076" filterUnits="userSpaceOnUse" color-interpolation-filters="sRGB">
<feFlood flood-opacity="0" result="BackgroundImageFix"/>
<feBlend mode="normal" in="SourceGraphic" in2="BackgroundImageFix" result="shape"/>
<feGaussianBlur stdDeviation="7.44908" result="effect1_foregroundBlur_880_61"/>
</filter>
<linearGradient id="paint0_linear_880_61" x1="186.932" y1="96.4063" x2="128.723" y2="228.175" gradientUnits="userSpaceOnUse">
<stop stop-color="#FFD88B"/>
<stop offset="1" stop-color="#FFA900"/>
</linearGradient>
</defs>
</svg>
